<?xml version="1.0" encoding="UTF-8"?>
<svg id="_图层_2" data-name="图层 2" xmlns="http://www.w3.org/2000/svg" viewBox="0 0 424.28 187">
  <defs>
    <style>
      .cls-1 {
        fill: #b8a170;
      }
    </style>
  </defs>
  <g id="_图层_1-2" data-name="图层 1">
    <g>
      <g>
        <path class="cls-1" d="M65.64,182.27h1.22c.27,2,1.38,3.71,4.68,3.71,2.49,0,4.11-1.44,4.11-3.4,0-2.22-1.07-3-4.26-3.48-3.46-.51-5.13-1.67-5.13-4.17s2.02-4.15,5-4.15,4.75,1.46,5.11,4h-1.13c-.38-1.98-1.62-2.97-3.97-2.97s-3.84,1.13-3.84,3.04c0,1.73.87,2.66,4.17,3.15,3.55.53,5.26,1.53,5.26,4.51,0,2.51-2.11,4.51-5.31,4.51-3.93,0-5.57-2.13-5.9-4.73Z"/>
        <path class="cls-1" d="M84.56,170.95h4.2c3.09,0,5.42,1.24,5.42,4.46v.09c0,3.26-2.31,4.53-5.39,4.53h-2.97v6.79h-1.24v-15.87ZM88.86,179.03c2.55,0,4.06-1.09,4.06-3.53v-.09c0-2.58-1.62-3.44-4.11-3.44h-3.02v7.06h3.06Z"/>
        <path class="cls-1" d="M100.75,178.99v-.18c0-4.51,3.26-8.04,7.73-8.04s7.73,3.53,7.73,7.99v.18c0,4.48-3.24,8.06-7.68,8.06s-7.77-3.57-7.77-8.01ZM114.91,178.92v-.18c0-3.86-2.55-6.95-6.44-6.95s-6.46,3-6.46,6.99v.18c0,4.04,2.82,6.99,6.5,6.99s6.39-2.97,6.39-7.04Z"/>
        <path class="cls-1" d="M123.84,170.95h1.24v7.82l7.7-7.82h1.42l-7.68,7.73,8.06,8.15h-1.51l-7.99-8.01v8.01h-1.24v-15.87Z"/>
        <path class="cls-1" d="M145.98,170.95h1.64l5.71,15.87h-1.24l-1.75-4.86h-7.15l-1.73,4.86h-1.18l5.71-15.87ZM143.53,180.96h6.44l-3.22-8.99-3.22,8.99Z"/>
        <path class="cls-1" d="M169.6,178.99v-.18c0-4.64,3.22-8.06,7.57-8.06,3.04,0,5.77,1.42,6.37,4.73h-1.24c-.58-2.62-2.58-3.73-5.11-3.73-3.82,0-6.33,2.91-6.33,7.04v.18c0,4.22,2.27,7.02,6.35,7.02,3.71,0,5.57-2.29,5.62-5.77v-.09h-4.88v-1.04h6.08v.91c0,4.57-2.73,7.02-6.82,7.02-4.77,0-7.61-3.35-7.61-8.01Z"/>
        <path class="cls-1" d="M191.7,170.95h1.24v14.85h7.7v1.02h-8.95v-15.87Z"/>
        <path class="cls-1" d="M206.18,178.99v-.18c0-4.51,3.26-8.04,7.73-8.04s7.73,3.53,7.73,7.99v.18c0,4.48-3.24,8.06-7.68,8.06s-7.77-3.57-7.77-8.01ZM220.34,178.92v-.18c0-3.86-2.55-6.95-6.44-6.95s-6.46,3-6.46,6.99v.18c0,4.04,2.82,6.99,6.5,6.99s6.39-2.97,6.39-7.04Z"/>
        <path class="cls-1" d="M229.27,170.95h4.51c2.8,0,4.82,1.13,4.82,4.02v.09c0,1.75-.93,2.95-2.71,3.44,2.38.44,3.49,1.71,3.49,3.86v.09c0,2.91-1.91,4.37-4.93,4.37h-5.17v-15.87ZM233.8,178.1c2.42,0,3.57-1.07,3.57-3.06v-.09c0-2.06-1.29-3-3.62-3h-3.26v6.15h3.31ZM234.42,185.82c2.49,0,3.75-1.18,3.75-3.37v-.09c0-2.18-1.4-3.29-4.17-3.29h-3.51v6.75h3.93Z"/>
        <path class="cls-1" d="M251.25,170.95h1.64l5.71,15.87h-1.24l-1.75-4.86h-7.15l-1.73,4.86h-1.18l5.71-15.87ZM248.81,180.96h6.44l-3.22-8.99-3.22,8.99Z"/>
        <path class="cls-1" d="M265.82,170.95h1.24v14.85h7.7v1.02h-8.95v-15.87Z"/>
        <path class="cls-1" d="M291.09,178.99v-.18c0-4.69,3.22-8.06,7.37-8.06,3.28,0,5.93,1.71,6.41,4.97h-1.24c-.49-2.55-2.22-3.97-5.15-3.97-3.55,0-6.13,2.84-6.13,7.04v.18c0,4.28,2.35,6.99,6.13,6.99,2.86,0,4.91-1.51,5.42-4.24h1.15c-.58,3.42-3.17,5.28-6.59,5.28-4.53,0-7.37-3.22-7.37-8.01Z"/>
        <path class="cls-1" d="M312.61,170.95h1.24v15.87h-1.24v-15.87Z"/>
        <path class="cls-1" d="M326.04,171.97h-4.93v-1.02h11.08v1.02h-4.93v14.85h-1.22v-14.85Z"/>
        <path class="cls-1" d="M339.45,170.95h1.24v15.87h-1.24v-15.87Z"/>
        <path class="cls-1" d="M349.33,170.95h9.12v1.02h-7.88v6.19h6.39v1.02h-6.39v6.62h8.28v1.02h-9.52v-15.87Z"/>
        <path class="cls-1" d="M365.08,182.27h1.22c.27,2,1.38,3.71,4.68,3.71,2.49,0,4.11-1.44,4.11-3.4,0-2.22-1.07-3-4.26-3.48-3.46-.51-5.13-1.67-5.13-4.17s2.02-4.15,5-4.15,4.75,1.46,5.11,4h-1.13c-.38-1.98-1.62-2.97-3.97-2.97s-3.84,1.13-3.84,3.04c0,1.73.87,2.66,4.17,3.15,3.55.53,5.26,1.53,5.26,4.51,0,2.51-2.11,4.51-5.31,4.51-3.93,0-5.57-2.13-5.9-4.73Z"/>
      </g>
      <g>
        <path class="cls-1" d="M392.53,72.43s-.02.05-.04.08c.06-.14.13-.28.19-.42-.05.12-.1.23-.16.35Z"/>
        <path class="cls-1" d="M371.38,135.33c-31.1,0-56.33-25.22-56.33-56.33s25.22-56.33,56.33-56.33c15.64,0,29.8,6.37,40,16.68h12.89c-12.06-16.07-31.26-26.45-52.89-26.45-36.51,0-66.1,29.59-66.1,66.1s29.59,66.1,66.1,66.1c21.38,0,40.39-10.15,52.46-25.89h-13.02c-10.15,9.98-24.08,16.12-39.44,16.12Z"/>
        <path class="cls-1" d="M276.38,95.28h-36.76v8.87h26.56c-9.24,18.48-28.33,31.18-50.39,31.18-31.11,0-56.33-25.22-56.33-56.33s25.21-56.33,56.33-56.33c15.64,0,29.8,6.37,40,16.68h12.89c-12.06-16.07-31.26-26.45-52.89-26.45-36.51,0-66.11,29.59-66.11,66.1s29.6,66.1,66.11,66.1c30.87,0,56.8-21.17,64.07-49.79h-3.48v-.04Z"/>
        <path class="cls-1" d="M116.7,81.6c-1.62-3.42-3.84-6.67-6.57-9.71-.22-.25-.44-.49-.67-.73-.25-.26-.49-.52-.74-.78-.5-.44-1-.86-1.52-1.27-.03-.03-.06-.05-.09-.08-.03-.02-.06-.04-.09-.07,0,0-.01,0-.02-.01-.36-.3-.73-.57-1.09-.85-4.12-3.13-8.63-5.64-13.38-7.64-5.63-2.37-11.59-4.02-17.62-5.11-2.79-.51-5.59-.9-8.39-1.19-.58-.06-1.17-.12-1.73-.17-.03,0-.06-.01-.08-.01-.31-.03-.61-.05-.92-.07-.2-.02-.39-.03-.59-.05-4.57-.35-9.1-.44-13.46-.36h-.34c-8.86,0-17.28.62-24.87,1.75-5.26.78-10.13,1.79-14.47,3.01,0-.32.02-.62.05-.93.02-.47.08-.94.17-1.4,0-.06.01-.12.02-.18,0-.02,0-.03.01-.04.03-.14.06-.28.08-.41.02-.13.05-.27.08-.4.02-.06.02-.11.04-.17.11-.52.22-1.05.34-1.57.7-3.01,1.64-5.92,2.81-8.72C21.86,24.74,40.95,10.7,63.41,9.82c.75-.02,1.5-.04,2.26-.04.62,0,1.26.01,1.88.04,6.89.23,13.48,1.68,19.52,4.18,7.02,2.88,13.34,7.15,18.6,12.46h12.88c-2.77-3.69-5.91-7.08-9.38-10.1C97.55,6.16,82.33,0,65.67,0,39.51,0,16.9,15.19,6.2,37.24c-1.2,2.46-2.25,5-3.13,7.62-.26.84-.51,1.7-.73,2.55-.9,3.13-1.56,6.36-1.93,9.67-.12,1.02-.21,2.04-.27,3.07,0,.03,0,.06,0,.09-.04.52-.07,1.05-.09,1.58,0,.18-.02.36-.02.54,0,.31-.01.62-.02.93,0,.23,0,.47,0,.71,0,1.42.05,2.83.16,4.24,2.33-.72,4.74-1.39,7.22-2,3.84-.95,7.86-1.76,12.03-2.42.99-.16,1.99-.31,3-.44.04-.01.09-.02.14-.02,2.06-.28,4.16-.54,6.28-.74,2.24-.22,4.51-.4,6.81-.53.64-.03,1.27-.07,1.91-.09,1.05-.05,2.12-.09,3.19-.12.97-.03,1.95-.05,2.93-.06.63,0,1.27-.01,1.9-.01.6,0,1.19,0,1.78.01,1.47.02,2.94.05,4.39.11.75,0,1.51.03,2.27.04h.04c.38,0,.75.02,1.13.04.26.01.52.02.78.03h0c1.28.06,2.57.13,3.87.23h.07c.13.01.26.02.4.03.94.07,1.9.16,2.84.26,2.43.26,4.86.6,7.27,1.04,2.25.41,4.49.91,6.71,1.51,1.92.51,3.83,1.09,5.71,1.75.49.17.98.35,1.46.54.3.11.6.23.9.35.18.07.36.15.53.22,10.08,4.28,18.13,11.27,22.69,19.78,0,0,.01.02,0,.02.17.32.34.64.5.96.03.09.07.18.09.27.02.06.04.11.07.17.01.02.02.04.03.07.09.16.18.33.27.49.02.03.03.06.05.09.86,1.63,1.59,3.32,2.19,5.04.07.19.13.38.2.58.16.49.31.98.45,1.47.01.02.02.05.02.07-.02.09-.05.17-.08.26-.43,1.48-.95,2.93-1.58,4.36-.03.07-.06.15-.09.22-.01.03-.02.06-.04.08-.04.12-.09.23-.15.35-.06.14-.13.28-.2.42-.11.23-.22.46-.33.7-.3.61-.62,1.22-.96,1.82-.01.01-.02.02-.02.03-3.78,7.99-10.74,15.57-20.05,21.11-.01,0-.02.01-.03.02-2.19,1.41-4.49,2.68-6.87,3.78-.13.06-.25.11-.38.17-.02.01-.03.02-.06.03-1.26.57-2.54,1.09-3.85,1.56-2.02.74-4.09,1.36-6.21,1.86-1.47.35-2.96.65-4.47.88-1.26.2-2.54.35-3.83.45-1.56.13-3.15.19-4.73.19-1.69,0-3.36-.07-5.01-.22-2.59-.22-5.13-.62-7.61-1.2-.44-.1-.87-.21-1.3-.32-.15-.03-.28-.07-.43-.11-.69-.18-1.38-.37-2.05-.59-1.73-.52-3.42-1.13-5.08-1.81-3.16-1.3-6.19-2.89-9.03-4.72h0c-1.65-1.07-3.22-2.2-4.74-3.43-.74-.59-1.46-1.2-2.17-1.84-.88-.78-1.74-1.6-2.57-2.43H5.44c3.12,4.16,6.73,7.94,10.73,11.26h.01c.14.12.28.23.42.33,2.09,1.71,4.27,3.29,6.56,4.72,1.24.79,2.51,1.53,3.81,2.23,1.73.94,3.5,1.79,5.32,2.57,1.85.79,3.74,1.5,5.67,2.13.05.02.09.03.15.04,2.05.66,4.14,1.22,6.27,1.68.37.08.73.16,1.1.23,1.88.37,3.79.66,5.73.87,2.34.26,4.72.38,7.14.38,1.9,0,3.78-.08,5.63-.24,2.84-.24,5.64-.66,8.38-1.26.01,0,.03,0,.04,0,5.12-1.1,10.02-2.81,14.62-5.03,3.43-1.66,6.69-3.6,9.76-5.8,1.28-.92,2.53-1.89,3.75-2.89.21-.17.43-.36.64-.55.36-.27.71-.56,1.07-.85.04-.03.08-.07.13-.11.57-.46,1.13-.96,1.68-1.47.04-.03.09-.07.13-.12,2.58-2.28,4.91-4.81,6.95-7.55,2.42-3.24,4.42-6.78,5.95-10.55.23-.57.45-1.14.66-1.72.69-1.91,1.25-3.87,1.68-5.88.34-1.84.51-3.71.51-5.62,0-4.82-1.12-9.47-3.21-13.84Z"/>
        <path class="cls-1" d="M110.16,102.63s-.02.05-.04.08c.06-.14.13-.28.19-.42-.05.12-.1.23-.16.35Z"/>
      </g>
    </g>
  </g>
</svg>