<?xml version="1.0" encoding="UTF-8"?><svg id="_层_2" xmlns="http://www.w3.org/2000/svg" viewBox="0 0 121.23 48.75"><g id="_层_1-2"><g><g><g><path d="M17.41,47.65h.28c.06,.46,.32,.86,1.09,.86,.58,0,.95-.33,.95-.79,0-.51-.25-.69-.99-.81-.8-.12-1.19-.39-1.19-.97s.47-.96,1.16-.96,1.1,.34,1.18,.93h-.26c-.09-.46-.38-.69-.92-.69s-.89,.26-.89,.71c0,.4,.2,.62,.97,.73,.82,.12,1.22,.36,1.22,1.05,0,.58-.49,1.05-1.23,1.05-.91,0-1.29-.49-1.37-1.1Z" style="fill:#fff;"/><path d="M21.8,45.03h.97c.72,0,1.26,.29,1.26,1.03v.02c0,.76-.54,1.05-1.25,1.05h-.69v1.58h-.29v-3.68Zm1,1.87c.59,0,.94-.25,.94-.82v-.02c0-.6-.38-.8-.95-.8h-.7v1.64h.71Z" style="fill:#fff;"/><path d="M25.56,46.89v-.04c0-1.05,.76-1.86,1.79-1.86s1.79,.82,1.79,1.85v.04c0,1.04-.75,1.87-1.78,1.87s-1.8-.83-1.8-1.86Zm3.28-.02v-.04c0-.9-.59-1.61-1.49-1.61s-1.5,.69-1.5,1.62v.04c0,.94,.65,1.62,1.51,1.62s1.48-.69,1.48-1.63Z" style="fill:#fff;"/><path d="M30.91,45.03h.29v1.81l1.79-1.81h.33l-1.78,1.79,1.87,1.89h-.35l-1.85-1.86v1.86h-.29v-3.68Z" style="fill:#fff;"/><path d="M36.04,45.03h.38l1.32,3.68h-.29l-.41-1.13h-1.66l-.4,1.13h-.27l1.32-3.68Zm-.57,2.32h1.49l-.75-2.08-.75,2.08Z" style="fill:#fff;"/><path d="M41.52,46.89v-.04c0-1.08,.75-1.87,1.76-1.87,.7,0,1.34,.33,1.48,1.1h-.29c-.13-.61-.6-.86-1.18-.86-.89,0-1.47,.67-1.47,1.63v.04c0,.98,.53,1.63,1.47,1.63,.86,0,1.29-.53,1.3-1.34v-.02h-1.13v-.24h1.41v.21c0,1.06-.63,1.63-1.58,1.63-1.11,0-1.77-.78-1.77-1.86Z" style="fill:#fff;"/><path d="M46.65,45.03h.29v3.44h1.79v.24h-2.07v-3.68Z" style="fill:#fff;"/><path d="M50,46.89v-.04c0-1.05,.76-1.86,1.79-1.86s1.79,.82,1.79,1.85v.04c0,1.04-.75,1.87-1.78,1.87s-1.8-.83-1.8-1.86Zm3.28-.02v-.04c0-.9-.59-1.61-1.49-1.61s-1.5,.69-1.5,1.62v.04c0,.94,.65,1.62,1.51,1.62s1.48-.69,1.48-1.63Z" style="fill:#fff;"/><path d="M55.36,45.03h1.05c.65,0,1.12,.26,1.12,.93v.02c0,.41-.22,.68-.63,.8,.55,.1,.81,.4,.81,.9v.02c0,.67-.44,1.01-1.14,1.01h-1.2v-3.68Zm1.05,1.66c.56,0,.83-.25,.83-.71v-.02c0-.48-.3-.69-.84-.69h-.76v1.43h.77Zm.14,1.79c.58,0,.87-.27,.87-.78v-.02c0-.5-.32-.76-.97-.76h-.81v1.57h.91Z" style="fill:#fff;"/><path d="M60.46,45.03h.38l1.32,3.68h-.29l-.41-1.13h-1.66l-.4,1.13h-.27l1.32-3.68Zm-.57,2.32h1.49l-.75-2.08-.75,2.08Z" style="fill:#fff;"/><path d="M63.83,45.03h.29v3.44h1.79v.24h-2.07v-3.68Z" style="fill:#fff;"/><path d="M69.69,46.89v-.04c0-1.09,.75-1.87,1.71-1.87,.76,0,1.37,.4,1.49,1.15h-.29c-.11-.59-.51-.92-1.19-.92-.82,0-1.42,.66-1.42,1.63v.04c0,.99,.55,1.62,1.42,1.62,.66,0,1.14-.35,1.26-.98h.27c-.13,.79-.74,1.23-1.53,1.23-1.05,0-1.71-.75-1.71-1.86Z" style="fill:#fff;"/><path d="M74.68,45.03h.29v3.68h-.29v-3.68Z" style="fill:#fff;"/><path d="M77.8,45.26h-1.14v-.24h2.57v.24h-1.14v3.44h-.28v-3.44Z" style="fill:#fff;"/><path d="M80.91,45.03h.29v3.68h-.29v-3.68Z" style="fill:#fff;"/><path d="M83.2,45.03h2.12v.24h-1.83v1.44h1.48v.24h-1.48v1.53h1.92v.24h-2.21v-3.68Z" style="fill:#fff;"/><path d="M86.85,47.65h.28c.06,.46,.32,.86,1.09,.86,.58,0,.95-.33,.95-.79,0-.51-.25-.69-.99-.81-.8-.12-1.19-.39-1.19-.97s.47-.96,1.16-.96,1.1,.34,1.18,.93h-.26c-.09-.46-.38-.69-.92-.69s-.89,.26-.89,.71c0,.4,.2,.62,.97,.73,.82,.12,1.22,.36,1.22,1.05,0,.58-.49,1.05-1.23,1.05-.91,0-1.29-.49-1.37-1.1Z" style="fill:#fff;"/></g><path d="M94.57,35.69c-7.92,0-14.34-6.42-14.34-14.34s6.42-14.34,14.34-14.34c3.98,0,7.59,1.62,10.19,4.25h3.28c-3.07-4.09-7.96-6.74-13.47-6.74-9.3,0-16.83,7.54-16.83,16.83s7.54,16.83,16.83,16.83c5.45,0,10.29-2.59,13.36-6.59h-3.32c-2.59,2.54-6.13,4.11-10.04,4.11Z" style="fill:#fff;"/><path d="M70.38,25.49h-9.36v2.26h6.76c-2.35,4.71-7.22,7.94-12.83,7.94-7.92,0-14.34-6.42-14.34-14.34s6.42-14.34,14.34-14.34c3.98,0,7.59,1.62,10.19,4.25h3.28c-3.07-4.09-7.96-6.74-13.47-6.74-9.3,0-16.83,7.54-16.83,16.83s7.54,16.83,16.83,16.83c7.86,0,14.47-5.39,16.32-12.68h-.89Z" style="fill:#fff;"/><path d="M29.72,22c-.41-.87-.98-1.7-1.67-2.47-.06-.06-.11-.12-.17-.18-.06-.07-.12-.13-.19-.2-.13-.11-.26-.22-.39-.32l-.02-.02-.02-.02h0c-.09-.08-.18-.15-.28-.22-1.05-.8-2.2-1.44-3.41-1.94-1.43-.6-2.95-1.02-4.49-1.3-.71-.13-1.42-.23-2.14-.3-.15-.02-.3-.03-.44-.04,0,0-.01,0-.02,0-.08,0-.16-.01-.23-.02-.05,0-.1,0-.15-.01-1.16-.09-2.32-.11-3.43-.09h-.09c-2.26,0-4.4,.16-6.33,.45-1.34,.2-2.58,.46-3.69,.77,0-.08,0-.16,.01-.24,0-.12,.02-.24,.04-.36,0-.01,0-.03,0-.05h0s.01-.08,.02-.12c0-.03,.01-.07,.02-.1,0-.02,0-.03,0-.04,.03-.13,.06-.27,.09-.4,.18-.77,.42-1.51,.71-2.22C5.57,7.52,10.43,3.95,16.15,3.72c.19,0,.38-.01,.58-.01,.16,0,.32,0,.48,0,1.76,.06,3.43,.43,4.97,1.06,1.79,.73,3.4,1.82,4.74,3.17h3.28c-.71-.94-1.51-1.8-2.39-2.57-2.96-2.6-6.84-4.16-11.08-4.16C10.06,1.22,4.3,5.09,1.58,10.71c-.31,.63-.57,1.27-.8,1.94-.07,.21-.13,.43-.18,.65-.23,.8-.4,1.62-.49,2.46-.03,.26-.05,.52-.07,.78v.02c-.01,.13-.02,.27-.02,.4,0,.05,0,.09,0,.14v.24c0,.06,0,.12,0,.18,0,.36,.01,.72,.04,1.08,.59-.18,1.21-.35,1.84-.51,.98-.24,2-.45,3.06-.62,.25-.04,.51-.08,.76-.11,.01,0,.02,0,.04,0,.53-.07,1.06-.14,1.6-.19,.57-.06,1.15-.1,1.73-.13,.16,0,.32-.02,.49-.02,.27-.01,.54-.02,.81-.03,.25,0,.5-.01,.75-.02,.16,0,.32,0,.48,0,.15,0,.3,0,.45,0,.37,0,.75,.01,1.12,.03,.19,0,.38,0,.58,.01h.01c.1,0,.19,0,.29,.01,.07,0,.13,0,.2,0h0c.33,.01,.65,.03,.98,.06h.02s.07,0,.1,0c.24,.02,.48,.04,.72,.07,.62,.07,1.24,.15,1.85,.27,.57,.11,1.14,.23,1.71,.38,.49,.13,.98,.28,1.45,.45,.12,.04,.25,.09,.37,.14,.08,.03,.15,.06,.23,.09,.05,.02,.09,.04,.13,.06,2.57,1.09,4.62,2.87,5.78,5.04h0c.04,.09,.09,.17,.13,.25,0,.02,.02,.05,.02,.07l.02,.04v.02s.06,.08,.08,.12v.02c.23,.42,.42,.85,.57,1.28,.02,.05,.03,.1,.05,.15,.04,.12,.08,.25,.12,.37,0,0,0,.01,0,.02,0,.02-.01,.04-.02,.07-.11,.38-.24,.75-.4,1.11,0,.02-.02,.04-.02,.06,0,0,0,.02,0,.02-.01,.03-.02,.06-.04,.09-.02,.04-.03,.07-.05,.11-.03,.06-.06,.12-.09,.18-.08,.16-.16,.31-.24,.46h0c-.96,2.04-2.74,3.97-5.1,5.38h0c-.56,.36-1.14,.69-1.75,.97-.03,.01-.06,.03-.1,.04,0,0,0,0-.01,0-.32,.14-.65,.28-.98,.4-.51,.19-1.04,.35-1.58,.47-.37,.09-.75,.16-1.14,.22-.32,.05-.65,.09-.98,.12-.4,.03-.8,.05-1.2,.05-.43,0-.86-.02-1.28-.06-.66-.06-1.31-.16-1.94-.31-.11-.03-.22-.05-.33-.08-.04,0-.07-.02-.11-.03-.18-.05-.35-.1-.52-.15-.44-.13-.87-.29-1.29-.46-.81-.33-1.58-.74-2.3-1.2h0c-.42-.27-.82-.56-1.21-.87-.19-.15-.37-.31-.55-.47-.22-.2-.44-.41-.65-.62H1.38c.8,1.06,1.71,2.02,2.73,2.87h0s.07,.06,.11,.09c.53,.44,1.09,.84,1.67,1.2,.32,.2,.64,.39,.97,.57,.44,.24,.89,.46,1.36,.65,.47,.2,.95,.38,1.44,.54,.01,0,.02,0,.04,.01,.52,.17,1.05,.31,1.6,.43,.09,.02,.19,.04,.28,.06,.48,.09,.97,.17,1.46,.22,.6,.07,1.2,.1,1.82,.1,.48,0,.96-.02,1.43-.06,.72-.06,1.44-.17,2.13-.32h0c1.3-.28,2.55-.72,3.72-1.28,.87-.42,1.7-.92,2.49-1.48,.33-.23,.64-.48,.95-.74,.05-.04,.11-.09,.16-.14,.09-.07,.18-.14,.27-.22,.01,0,.02-.02,.03-.03,.14-.12,.29-.24,.43-.37,.01,0,.02-.02,.03-.03,.66-.58,1.25-1.22,1.77-1.92,.62-.83,1.13-1.73,1.51-2.69,.06-.14,.12-.29,.17-.44,.17-.49,.32-.99,.43-1.5,.09-.47,.13-.95,.13-1.43,0-1.23-.29-2.41-.82-3.53Z" style="fill:#fff;"/><path d="M28.05,27.36v.02s.02-.07,.04-.11c-.01,.03-.03,.06-.04,.09Z" style="fill:#fff;"/></g><text transform="translate(113.44 4.08)" style="fill:#fff; font-family:SegoeUIVariable, &apos;Segoe UI Variable&apos;; font-size:4.8px; font-variation-settings:&apos;wght&apos; 400, &apos;opsz&apos; 10; letter-spacing:.1em;"><tspan x="0" y="0">TM</tspan></text></g></g></svg>